
Mambattiyan (2011) - Tamil Movie - DVDrip.Xvid - 700 MB - MJY 


General


Complete name                    : D:\MJY\UploadS\Mambattiyan (2011)  Lotus - 1CD - XVID -
Format                           : AVI
Format/Info                      : Audio Video Interleave
File size                        : 698 MiB
Duration                         : 2h 13mn
Overall bit rate mode            : Variable
Overall bit rate                 : 730 Kbps
Writing application              : VirtualDubMod 1.5.4.1 (build 2178/release)
Writing library                  : VirtualDubMod build 2178/release



Video


ID                               : 0
Format                           : MPEG-4 Visual
Format profile                   : Advanced Simple@L5
Format settings, BVOP            : 1
Format settings, QPel            : No
Format settings, GMC             : No warppoints
Format settings, Matrix          : Custom
Codec ID                         : XVID
Codec ID/Hint                    : XviD
Duration                         : 2h 13mn
Bit rate                         : 611 Kbps
Width                            : 640 pixels
Height                           : 288 pixels
Display aspect ratio             : 2.222
Frame rate                       : 29.970 fps
Color space                      : YUV
Chroma subsampling               : 4:2:0
Bit depth                        : 8 bits
Scan type                        : Progressive
Compression mode                 : Lossy
Bits/(Pixel*Frame)               : 0.111
Stream size                      : 585 MiB (84%)
Writing library                  : XviD 1.2.1 (UTC 2008-12-04)



Audio


ID                               : 1
Format                           : MPEG Audio
Format version                   : Version 1
Format profile                   : Layer 3
Mode                             : Joint stereo
Mode extension                   : MS Stereo
Codec ID                         : 55
Codec ID/Hint                    : MP3
Duration                         : 2h 13mn
Bit rate mode                    : Variable
Bit rate                         : 105 Kbps
Nominal bit rate                 : 128 Kbps
Channel(s)                       : 2 channels
Sampling rate                    : 48.0 KHz
Compression mode                 : Lossy
Stream size                      : 100 MiB (14%)

 
http://img210.imageshack.us/img210/4976/mambattiyan.jpg


CREDITS TO LOKESH CENA @ MJY